<?xml version="1.0" encoding="utf-8"?>
<!-- Generator: Adobe Illustrator 19.1.0, SVG Export Plug-In . SVG Version: 6.00 Build 0)  -->
<svg version="1.1" id="图层_1" xmlns="http://www.w3.org/2000/svg" xmlns:xlink="http://www.w3.org/1999/xlink" x="0px" y="0px"
	 viewBox="-299 541 200 200" style="enable-background:new -299 541 200 200;" xml:space="preserve">
<g>
	<path d="M-198.9,541c-4.8,3-54.8,34.1-54.8,86.4c0,54.9,35.1,72.6,35.1,72.6h19.5h0.2h19.5c0,0,35.2-17.7,35.2-72.6
		C-144.2,575.1-194.2,544-198.9,541 M-199.4,591.9c-6.8,0-12.3-5.5-12.3-12.3c0-6.8,5.5-12.3,12.3-12.3c6.8,0,12.3,5.5,12.3,12.3
		C-187.1,586.4-192.6,591.9-199.4,591.9"/>
	<path d="M-260.4,647.1c-0.3-0.9-1.5-1.1-2.1-0.3c-12.8,17.5-15.4,45.8-16,56.6c-0.1,1.9,2,3.1,3.6,2.2l19.6-11.7
		c4.7-2.8,6.9-8.5,5.2-13.8L-260.4,647.1z"/>
	<path d="M-137.6,647.1l-10.4,32.8c-1.7,5.3,0.5,11,5.2,13.8l19.6,11.7c1.6,1,3.7-0.3,3.6-2.2c-0.6-10.8-3.2-39.1-16-56.6
		C-136,646-137.3,646.2-137.6,647.1"/>
	<path d="M-181.9,708.1h-17h-17c-1.6,0-2.7,1.9-2.3,3.4l6.2,21.3c1.5,5.1,6.1,8.3,11.4,8.3h1.7h1.7c5.3,0,10-3,11.4-8.1l6.2-21.7
		C-179.1,709.7-180.3,708.1-181.9,708.1"/>
</g>
</svg>
